<svg height="494" width="720" xmlns="http://www.w3.org/2000/svg">
<rect height="494" fill="#555" width="720"></rect>
<text fill="#7f7" font-family="Courier New" font-size="12" xml:space="preserve">
<tspan x="10" y="26">26 megabytes installed</tspan>
<tspan x="10" y="42"></tspan>
<tspan x="10" y="58">node_modules</tspan>
<tspan x="10" y="74">├── UNMET PEER DEPENDENCY react@&gt;=0.14.0 &lt;= 15</tspan>
<tspan x="10" y="90">├── UNMET PEER DEPENDENCY react-dom@&gt;=0.14.0 &lt;= 15</tspan>
<tspan x="10" y="106">└─┬ semantic-ui-react@0.68.0 </tspan>
<tspan x="10" y="122">  ├─┬ babel-runtime@6.23.0 </tspan>
<tspan x="10" y="138">  │ ├── core-js@2.4.1 </tspan>
<tspan x="10" y="154">  │ └── regenerator-runtime@0.10.3 </tspan>
<tspan x="10" y="170">  ├── classnames@2.2.5 </tspan>
<tspan x="10" y="186">  ├─┬ debug@2.6.4 </tspan>
<tspan x="10" y="202">  │ └── ms@0.7.3 </tspan>
<tspan x="10" y="218">  ├── lodash@4.17.4 </tspan>
<tspan x="10" y="234">  └─┬ prop-types@15.5.8 </tspan>
<tspan x="10" y="250">    └─┬ fbjs@0.8.12 </tspan>
<tspan x="10" y="266">      ├── core-js@1.2.7 </tspan>
<tspan x="10" y="282">      ├─┬ isomorphic-fetch@2.2.1 </tspan>
<tspan x="10" y="298">      │ ├─┬ node-fetch@1.6.3 </tspan>
<tspan x="10" y="314">      │ │ ├─┬ encoding@0.1.12 </tspan>
<tspan x="10" y="330">      │ │ │ └── iconv-lite@0.4.15 </tspan>
<tspan x="10" y="346">      │ │ └── is-stream@1.1.0 </tspan>
<tspan x="10" y="362">      │ └── whatwg-fetch@2.0.3 </tspan>
<tspan x="10" y="378">      ├─┬ loose-envify@1.3.1 </tspan>
<tspan x="10" y="394">      │ └── js-tokens@3.0.1 </tspan>
<tspan x="10" y="410">      ├── object-assign@4.1.1 </tspan>
<tspan x="10" y="426">      ├─┬ promise@7.1.1 </tspan>
<tspan x="10" y="442">      │ └── asap@2.0.5 </tspan>
<tspan x="10" y="458">      ├── setimmediate@1.0.5 </tspan>
<tspan x="10" y="474">      └── ua-parser-js@0.7.12</tspan>
</text>
</svg>
